<svg width="64" height="64" viewBox="0 0 64 64" fill="none" xmlns="http://www.w3.org/2000/svg">
<path d="M25.3571 55.2323C21.6425 54.1709 18.3757 52.2166 15.5235 49.4874C14.628 49.8075 13.7159 50.1276 12.7873 50.4308C12.3561 50.5656 11.925 50.515 11.4772 50.3466C10.6813 50.0433 10.2004 49.4537 9.85212 48.7292C9.37122 47.769 8.75765 46.8929 8.27675 45.9326C7.8456 45.0397 7.21545 44.2647 6.85062 43.3381C6.66821 42.8833 6.18731 42.58 6.18731 42.0072C5.75615 41.2996 6.17073 40.6763 6.41947 40.0529C6.4858 39.8845 6.56871 39.6655 6.71796 39.5981C7.31494 39.3285 7.61344 38.722 8.11092 38.3514C8.34308 38.1829 8.59182 37.9976 8.85715 37.7954C8.47574 35.858 8.14409 33.9206 8.14409 31.9326C8.14409 29.9615 8.49233 28.0578 8.85715 26.1709C8.21042 25.5644 7.61344 24.9747 6.98329 24.4188C6.33655 23.846 5.95515 23.1384 6.03806 22.3971C6.08781 21.9928 6.20389 21.5548 6.40289 21.2178C7.01645 20.2238 7.58027 19.1793 8.17725 18.1685C8.65816 17.3598 9.07273 16.5174 9.60338 15.7256C9.88529 15.3213 10.0511 14.8496 10.333 14.4284C10.8803 13.6366 11.9747 13.2491 12.8702 13.5187C13.6662 13.7545 14.4124 14.1083 15.225 14.2599C15.3079 14.2768 15.3742 14.3947 15.4571 14.4789C18.326 11.7665 21.5928 9.82912 25.3405 8.70036C25.4898 8.24549 25.5229 7.75692 25.7053 7.2852C25.838 6.93141 25.8048 6.49338 25.8712 6.1059C26.0536 5.09507 26.6672 4.50542 27.546 4.20217C27.8611 4.10108 28.1762 4 28.5576 4C30.8792 4.03369 33.2008 4.03369 35.5224 4C36.1857 4 36.7495 4.26955 37.2802 4.5728C37.7611 4.82551 38.0264 5.36462 38.1591 5.87004C38.3912 6.79663 38.5239 7.74007 38.7063 8.71721C42.4375 9.79543 45.7043 11.7329 48.5565 14.4621C49.452 14.142 50.3641 13.8219 51.2927 13.5187C51.7239 13.3839 52.155 13.4344 52.6028 13.6029C53.3987 13.9061 53.8796 14.4958 54.2279 15.2202C54.7088 16.1805 55.3223 17.0566 55.8032 18.0168C56.2344 18.9097 56.8646 19.6847 57.2294 20.6113C57.4118 21.0662 57.8927 21.3694 57.8927 21.9422C58.3238 22.6498 57.9093 23.2732 57.6605 23.8965C57.5942 24.065 57.5113 24.284 57.362 24.3514C56.7651 24.6209 56.4666 25.2274 55.9691 25.5981C55.7369 25.7665 55.4882 25.9519 55.2228 26.154C55.6043 28.0915 55.9359 30.0289 55.9359 32.0168C55.9359 33.988 55.6374 35.8917 55.2228 37.7786C55.8696 38.3851 56.4666 38.9747 57.0967 39.5307C57.7434 40.1035 58.1248 40.8111 58.0419 41.5523C57.9922 41.9567 57.8927 42.3947 57.6771 42.7316C57.0801 43.7088 56.5163 44.7196 55.9359 45.7136C55.2063 46.9434 54.6093 48.2744 53.7636 49.4368C53.6143 50.077 53.0173 50.1276 52.5862 50.3634C52.1219 50.6161 51.6575 50.5487 51.1435 50.3971C50.3806 50.1781 49.651 49.7906 48.855 49.6895C48.7721 49.6727 48.7058 49.5548 48.6229 49.4705C45.754 52.2166 42.5038 54.1709 38.7063 55.2659C38.5239 56.1757 38.3581 57.1191 38.1591 58.0457C37.9601 58.9555 37.3631 59.5283 36.5174 59.7978C36.2023 59.8989 35.8706 60 35.5058 60C33.1842 59.9663 30.8626 59.9663 28.541 60C27.8777 60 27.3139 59.7304 26.7832 59.4272C26.3023 59.1745 26.0204 58.6354 25.9209 58.13C25.7385 57.136 25.5561 56.2094 25.3571 55.2323ZM26.435 40.3899C26.7666 40.2046 27.1481 40.0866 27.1646 39.6823C27.1978 39.0758 27.2807 38.4525 27.1481 37.8797C26.9159 36.9025 26.5013 35.9591 26.2526 34.9819C26.0868 34.3586 25.7219 33.769 25.7385 33.0951C25.2079 31.7641 24.8762 30.3658 24.4285 29.0181C24.0636 27.9061 23.7983 26.7605 23.4003 25.6655C23.1847 25.059 23.135 24.3851 22.737 23.846C22.7038 23.7954 22.6873 23.7617 22.6873 23.7617C22.2395 23.4585 21.7752 23.5596 21.3772 23.5596C21.1451 23.7786 20.9461 23.9639 20.7636 24.1324C20.7471 24.6715 20.3657 25.0927 20.432 25.6149C19.8516 26.929 19.6028 28.3442 19.1219 29.6919C18.8732 30.3827 18.724 31.0903 18.525 31.7978C18.3426 32.5054 17.9446 33.1456 17.9446 33.9037C17.3144 35.3357 16.9993 36.8688 16.535 38.3682C16.4189 38.7389 16.3526 39.0927 16.5848 39.4464C16.6511 39.5475 16.6179 39.6992 16.6179 39.6823C16.8833 39.9687 17.0823 40.1709 17.2481 40.373C17.5632 40.373 17.8948 40.373 18.2431 40.373C18.4752 40.0698 18.7074 39.7834 18.923 39.497C18.8732 38.5367 19.0722 37.8965 19.5034 36.8688C21.1285 36.8688 22.7536 36.8688 24.3787 36.8688C24.5114 37.4079 24.5777 37.9302 24.7601 38.4188C24.843 38.6209 24.9259 38.8231 24.8928 39.0253C24.843 39.6486 25.042 40.1372 25.7385 40.373C25.9043 40.3899 26.1531 40.3899 26.435 40.3899ZM30.3154 40.3899C30.7631 40.3562 31.2772 40.491 31.642 40.1203C31.7747 39.9519 31.8908 39.7834 32.0566 39.5475C32.0566 37.8628 32.0566 36.0939 32.0566 34.3249C33.2671 34.3249 34.4611 34.2744 35.6385 34.3418C36.3515 34.3755 36.9319 34.1564 37.4958 33.8026C37.7611 33.6342 37.9932 33.3815 38.2254 33.1456C38.839 32.5391 39.1375 31.7978 39.154 30.9218C39.154 29.5403 39.154 28.1757 39.154 26.7942C39.154 26.5921 39.1043 26.373 39.0546 26.1709C38.8721 25.4464 38.4907 24.9073 37.9767 24.4356C37.3797 23.8797 36.6832 23.5427 35.8541 23.5427C33.9968 23.5427 32.1561 23.5427 30.2822 23.5427C30.0998 23.7449 29.9174 23.9471 29.7018 24.1492C29.7018 29.3381 29.7018 34.5608 29.7018 39.8002C29.9174 39.9856 30.1164 40.1877 30.3154 40.3899ZM42.255 40.3899C43.3993 40.3899 44.5601 40.3899 45.7043 40.3899C45.9033 40.1877 46.1023 39.9856 46.3013 39.8002C46.3013 39.4801 46.3013 39.1769 46.3013 38.8568C46.3013 38.8231 46.3013 38.8063 46.3013 38.7894C46.0525 38.3177 45.6711 38.0313 45.1736 37.9807C45.1736 33.9543 45.1736 29.9446 45.1736 26.0193C45.5385 25.8339 45.8535 25.6655 46.2184 25.4633C46.2681 25.0253 46.3013 24.5704 46.3344 24.2503C46.0691 23.9471 45.8867 23.728 45.7374 23.5596C44.5435 23.5596 43.3827 23.5596 42.3545 23.5596C42.0726 23.8123 41.8736 23.9976 41.6249 24.2335C41.6746 24.6378 41.741 25.0927 41.7907 25.4801C42.1887 25.6823 42.5038 25.8508 42.7857 26.0024C42.7857 30.012 42.7857 34.0217 42.7857 37.9976C42.6199 38.0313 42.4375 37.9976 42.3711 38.0818C42.139 38.3177 41.741 38.3851 41.6581 38.7726C41.6581 39.1095 41.6581 39.4464 41.6581 39.7834C41.8571 39.9856 42.056 40.1877 42.255 40.3899Z" fill="white"/>
<path d="M23.5087 34.2921C22.5303 34.3258 21.5022 34.3426 20.474 34.3763C20.4409 34.3763 20.3911 34.4437 20.2916 34.528C20.3082 33.4834 20.8886 32.6411 20.9549 31.6808C21.4524 30.8384 21.5022 29.8444 21.8338 28.901C21.9333 29.0021 22.0826 29.1032 22.0826 29.1874C22.0992 29.9118 22.5137 30.5352 22.6464 31.2259C22.7459 31.6976 23.0112 32.1525 23.0775 32.6242C23.1439 33.2307 23.5419 33.6856 23.5087 34.2921Z" fill="white"/>
<path d="M36.8508 31.0222C36.7347 31.2075 36.6352 31.3929 36.5026 31.5613C36.2704 31.8309 35.9719 31.9825 35.5905 31.9657C34.4297 31.9488 33.2689 31.9657 32.075 31.9657C32.075 29.9608 32.075 27.956 32.075 25.9007C33.2855 25.9007 34.5292 25.8838 35.7563 25.9007C36.3367 25.9175 36.8342 26.524 36.8508 27.1642C36.8508 28.2256 36.8508 29.287 36.8508 30.3483C36.8508 30.5842 36.8508 30.8032 36.8508 31.0222Z" fill="white"/>
</svg>
