<svg width="32" height="32" viewBox="0 0 32 32" fill="none" xmlns="http://www.w3.org/2000/svg">
<mask id="mask0_3296_5028" style="mask-type:alpha" maskUnits="userSpaceOnUse" x="0" y="0" width="32" height="32">
<rect width="32" height="32" fill="#D9D9D9"/>
</mask>
<g mask="url(#mask0_3296_5028)">
<path d="M9.83044 17L16.7228 23.8923C16.921 24.0905 17.0189 24.3225 17.0164 24.5883C17.0138 24.8541 16.9091 25.0904 16.7024 25.2973C16.4956 25.4904 16.2613 25.5904 15.9998 25.5973C15.7382 25.6042 15.504 25.5042 15.2971 25.2973L6.84344 16.8437C6.71855 16.7188 6.63055 16.5871 6.57944 16.4487C6.52811 16.3102 6.50244 16.1607 6.50244 16C6.50244 15.8393 6.52811 15.6898 6.57944 15.5513C6.63055 15.4129 6.71855 15.2812 6.84344 15.1563L15.2971 6.70266C15.4818 6.51799 15.7104 6.42355 15.9831 6.41932C16.2558 6.4151 16.4956 6.50955 16.7024 6.70266C16.9091 6.90955 17.0124 7.1471 17.0124 7.41533C17.0124 7.68377 16.9091 7.92143 16.7024 8.12832L9.83044 15H24.9998C25.2836 15 25.5211 15.0958 25.7124 15.2873C25.904 15.4787 25.9998 15.7162 25.9998 16C25.9998 16.2838 25.904 16.5213 25.7124 16.7127C25.5211 16.9042 25.2836 17 24.9998 17H9.83044Z" fill="#3DCFB6"/>
</g>
</svg>
