<svg width="64" height="64" viewBox="0 0 64 64" fill="none" xmlns="http://www.w3.org/2000/svg">
<path d="M7.00439 4.00987C7.00439 4.22696 6.99451 4.37497 7.00439 4.52299C7.37968 8.62797 7.75497 12.7329 8.12039 16.8478C8.63394 22.6698 9.13762 28.4917 9.65118 34.3038C10.2339 40.8362 10.8264 47.3588 11.3894 53.8913C11.4289 54.3649 11.5968 54.5721 12.0412 54.6905C18.3619 56.4273 24.6628 58.1739 30.9835 59.9007C31.4082 60.0191 31.9217 60.0388 32.3464 59.9204C38.6868 58.1837 45.0174 56.4174 51.3578 54.6708C51.8418 54.5327 52.0096 54.3156 52.0491 53.8222C52.2467 51.3553 52.4837 48.8785 52.701 46.4115C53.0664 42.3263 53.4219 38.241 53.7873 34.1558C54.212 29.3601 54.6466 24.5742 55.0712 19.7785C55.3873 16.2064 55.723 12.6441 56.0391 9.07201C56.1872 7.3945 56.3156 5.71699 56.4539 4H7.00439V4.00987ZM46.9136 18.2589C46.5877 21.8705 46.2618 25.4919 45.9359 29.1035C45.5606 33.2578 45.1853 37.4121 44.81 41.5566C44.7014 42.7506 44.5433 43.9446 44.5137 45.1484C44.494 45.7898 44.2174 45.9576 43.6841 46.1056C39.872 47.1319 36.0697 48.1877 32.2674 49.2337C32.0995 49.283 31.9415 49.3422 31.7736 49.3916C31.7143 49.362 31.6551 49.3422 31.5859 49.3126C27.517 48.2074 23.448 47.0924 19.3791 45.9675C19.2112 45.9181 18.9939 45.6517 18.9742 45.4642C18.6878 42.3855 18.431 39.3067 18.1545 36.1688H24.3665C24.4752 37.4023 24.5937 38.6555 24.6924 39.9185C24.7813 41.0829 24.7714 41.0829 25.8677 41.379C27.833 41.902 29.8082 42.4151 31.7736 42.9282L31.7538 42.8789C33.9068 42.3065 36.0598 41.7441 38.2128 41.1323C38.4103 41.0731 38.6374 40.7573 38.6671 40.5402C38.7955 39.5929 38.8646 38.6357 38.9436 37.6884C39.072 36.1589 39.2004 34.6294 39.3386 33.0309H31.7538L31.7736 32.9914C31.7242 32.9914 31.6649 32.9914 31.6156 32.9914H17.8681C17.6804 30.9488 17.5027 28.9259 17.315 26.8438H31.6254C31.6748 26.8438 31.7341 26.8438 31.7835 26.8438L31.7637 26.8043H39.8917C40.0793 24.6828 40.267 22.6105 40.4546 20.4988H31.7538L31.7736 20.4594C31.7242 20.4594 31.6649 20.4594 31.6156 20.4594C26.7467 20.4692 21.8778 20.4692 17.0088 20.4791C16.9397 20.4791 16.8706 20.4495 16.7422 20.41C16.5644 18.397 16.3768 16.384 16.199 14.3118H31.6156C31.6649 14.3118 31.7242 14.3118 31.7736 14.3118L31.7538 14.2723H47.2395C47.1309 15.6538 47.0222 16.9563 46.9136 18.2589Z" fill="white"/>
</svg>
