<svg width="84" height="28" viewBox="0 0 84 28" fill="none" xmlns="http://www.w3.org/2000/svg">
<rect x="0.5" y="0.5" width="83" height="27" rx="13.5" stroke="#3DCFB6"/>
<rect width="44" height="28" rx="14" fill="#3DCFB6"/>
<path d="M16.112 10.284L16.112 12.948H19.952V14.788H16.112V17.62L20.744 17.62L20.744 19.5L13.488 19.5L13.488 8.412L20.736 8.412L20.472 10.284L16.112 10.284ZM27.1778 19.5L24.2578 10.58C24.2951 10.82 24.3351 11.1107 24.3778 11.452C24.4258 11.788 24.4711 12.164 24.5138 12.58C24.5564 12.9907 24.5911 13.428 24.6178 13.892C24.6444 14.356 24.6578 14.8307 24.6578 15.316L24.6578 19.5H22.4258L22.4258 8.412H25.6978L28.5298 17.284C28.4711 16.948 28.4098 16.548 28.3458 16.084C28.2871 15.6147 28.2364 15.092 28.1938 14.516C28.1511 13.94 28.1298 13.3213 28.1298 12.66L28.1298 8.412H30.3618L30.3618 19.5H27.1778Z" fill="white"/>
<path d="M59.36 13.94C59.36 12.98 59.2587 12.212 59.056 11.636C58.8533 11.06 58.5867 10.628 58.256 10.34C57.9253 10.052 57.5627 9.86 57.168 9.764C56.7787 9.668 56.3947 9.62 56.016 9.62H54.72L54.72 18.388H56.032C56.4267 18.388 56.8187 18.3267 57.208 18.204C57.6027 18.076 57.9627 17.852 58.288 17.532C58.6133 17.2067 58.872 16.756 59.064 16.18C59.2613 15.5987 59.36 14.852 59.36 13.94ZM60.84 13.94C60.84 14.8573 60.7413 15.6413 60.544 16.292C60.352 16.9373 60.088 17.4707 59.752 17.892C59.416 18.3133 59.032 18.6413 58.6 18.876C58.1733 19.1053 57.7227 19.268 57.248 19.364C56.7787 19.4547 56.3173 19.5 55.864 19.5H53.336L53.336 8.484L55.688 8.484C56.3333 8.484 56.96 8.556 57.568 8.7C58.1813 8.844 58.7333 9.11067 59.224 9.5C59.72 9.884 60.112 10.4333 60.4 11.148C60.6933 11.8627 60.84 12.7933 60.84 13.94ZM64.9938 9.62V13.332L69.0738 13.332V14.476L64.9938 14.476V18.388L70.0017 18.388V19.5L63.6018 19.5L63.6018 8.484L69.8577 8.484L69.6978 9.62L64.9938 9.62Z" fill="#3DCFB6" fill-opacity="0.5"/>
</svg>
