<svg width="84" height="28" viewBox="0 0 84 28" fill="none" xmlns="http://www.w3.org/2000/svg">
<rect x="0.5" y="0.5" width="83" height="27" rx="13.5" stroke="#3DCFB6"/>
<path d="M15.4 9.62L15.4 13.332H19.48V14.476H15.4V18.388L20.408 18.388V19.5L14.008 19.5L14.008 8.484L20.264 8.484L20.104 9.62L15.4 9.62ZM27.9138 19.5L24.0338 9.812C24.0391 9.93467 24.0498 10.14 24.0658 10.428C24.0871 10.7107 24.1084 11.0493 24.1298 11.444C24.1564 11.8333 24.1778 12.2467 24.1938 12.684C24.2098 13.1213 24.2178 13.5533 24.2178 13.98L24.2178 19.5H22.9298L22.9298 8.484H24.8098L28.7538 18.212C28.7484 18.0573 28.7298 17.7747 28.6978 17.364C28.6658 16.948 28.6364 16.4467 28.6098 15.86C28.5831 15.2733 28.5698 14.652 28.5698 13.996L28.5698 8.484H29.8577L29.8577 19.5H27.9138Z" fill="#3DCFB6" fill-opacity="0.5"/>
<rect x="40" width="44" height="28" rx="14" fill="#3DCFB6"/>
<path d="M58.472 13.9C58.472 13.1533 58.408 12.5453 58.28 12.076C58.1573 11.6067 57.984 11.244 57.76 10.988C57.5413 10.732 57.2827 10.556 56.984 10.46C56.6853 10.364 56.3627 10.316 56.016 10.316H55.456L55.456 17.604H56.016C56.3787 17.604 56.7093 17.548 57.008 17.436C57.312 17.3187 57.5733 17.124 57.792 16.852C58.0107 16.5747 58.1787 16.196 58.296 15.716C58.4133 15.236 58.472 14.6307 58.472 13.9ZM61.192 13.9C61.192 14.8013 61.096 15.5747 60.904 16.22C60.712 16.86 60.4427 17.3933 60.096 17.82C59.7547 18.2467 59.3573 18.5827 58.904 18.828C58.4507 19.0733 57.9627 19.2467 57.44 19.348C56.9173 19.4493 56.3787 19.5 55.824 19.5H52.832L52.832 8.412L55.632 8.412C56.3413 8.412 57.0267 8.48667 57.688 8.636C58.3547 8.78 58.9493 9.04933 59.472 9.444C60 9.83333 60.4187 10.388 60.728 11.108C61.0373 11.8227 61.192 12.7533 61.192 13.9ZM65.7057 10.284V12.948L69.5458 12.948V14.788L65.7057 14.788V17.62L70.3378 17.62V19.5L63.0818 19.5L63.0818 8.412L70.3298 8.412L70.0658 10.284L65.7057 10.284Z" fill="white"/>
</svg>
