<svg width="64" height="64" viewBox="0 0 64 64" fill="none" xmlns="http://www.w3.org/2000/svg">
<path d="M58.9494 29.5334L34.4666 5.05057C33.0658 3.64981 30.7515 3.64981 29.3507 5.05057L24.2958 10.1055L30.7515 16.5612C32.2741 16.074 33.9793 16.3785 35.1365 17.5965C36.3545 18.8146 36.6591 20.5198 36.1718 22.0424L42.3839 28.2545C43.9065 27.7673 45.6118 28.0718 46.8298 29.2898C48.5351 30.9342 48.5351 33.6748 46.8298 35.3801C45.1245 37.0854 42.4448 37.0854 40.7395 35.3801C39.4606 34.1011 39.1561 32.2741 39.826 30.6906L34.0402 24.9048V40.1305C34.4666 40.3132 34.832 40.6177 35.1974 40.9222C36.9027 42.5666 36.9027 45.3072 35.1974 47.0125C33.4921 48.6569 30.8124 48.6569 29.1071 47.0125C27.4019 45.3072 27.4019 42.6275 29.1071 40.9222C29.5334 40.4959 30.0207 40.1914 30.5079 40.0087V24.6003C30.0207 24.4176 29.5334 24.0522 29.1071 23.6868C27.8282 22.4078 27.5237 20.5808 28.1936 18.9973L21.7988 12.6634L5.05057 29.4116C3.64981 30.8124 3.64981 33.1267 5.05057 34.5275L29.4725 58.9494C30.8733 60.3502 33.1876 60.3502 34.5884 58.9494L58.8885 34.6493C60.3502 33.1876 60.3502 30.9342 58.9494 29.5334Z" fill="white"/>
</svg>
