<svg width="64" height="64" viewBox="0 0 64 64" fill="none" xmlns="http://www.w3.org/2000/svg">
<g clip-path="url(#clip0_112285_1072)">
<path d="M50.507 27.5335L32.5744 37.7481C32.2517 37.9379 31.8529 37.9379 31.5207 37.7481L13.5881 27.5335C12.8857 27.1347 12.8857 26.119 13.5881 25.7108L31.5207 15.4962C31.8434 15.3063 32.2422 15.3063 32.5744 15.4962L50.507 25.7108C51.2094 26.1095 51.2094 27.1252 50.507 27.5335Z" fill="#3DCFB6"/>
<path d="M47.4027 30.97V39.3904C47.4027 39.7701 47.2033 40.1119 46.8711 40.3017L32.5744 48.4468C32.2516 48.6367 31.8529 48.6367 31.5207 48.4468L17.224 40.3017C16.8917 40.1119 16.6924 39.7701 16.6924 39.3904V30.97L24.6191 35.4792L31.5207 39.4189C31.8434 39.6087 32.2421 39.6087 32.5744 39.4189L39.4759 35.4792L47.4027 30.97Z" fill="#3DCFB6"/>
<path d="M55.7566 17.072L56.2502 16.7302C56.8483 16.3125 56.7723 15.4107 56.1173 15.0974L52.1871 13.2273C51.5226 12.914 50.7727 13.4361 50.8296 14.1671L51.2094 18.5055C51.2758 19.2269 52.1017 19.6161 52.6998 19.1985L53.4023 18.7143C59.6488 28.777 57.9685 42.1813 49.2348 50.3454C40.6435 58.3766 27.4006 59.3544 17.7461 52.6712C17.1005 52.2251 16.2082 52.3864 15.762 53.032C15.3158 53.6775 15.4772 54.5699 16.1227 55.016C20.8978 58.3197 26.4513 59.943 31.9953 59.943C38.9347 59.943 45.8552 57.3988 51.1809 52.4244C60.9303 43.3015 62.81 28.2929 55.7566 17.072Z" fill="#3DCFB6"/>
<path d="M47.9723 8.92698C37.2261 1.48436 22.4833 2.57607 12.9142 11.5186C2.91791 20.8693 1.12371 35.8115 8.57582 47.2223L7.88282 47.6969C7.28475 48.1146 7.36069 49.0165 8.01572 49.3298L11.9459 51.1999C12.6104 51.5132 13.3604 50.9911 13.3034 50.2601L12.9237 45.9217C12.8572 45.2002 12.0313 44.811 11.4332 45.2287L10.9206 45.5895C4.29441 35.3464 5.89875 21.9705 14.8603 13.5976C23.4516 5.56641 36.6945 4.57912 46.349 11.2718C46.9945 11.718 47.8869 11.5566 48.3331 10.911C48.7792 10.2655 48.6179 9.37315 47.9723 8.92698Z" fill="#3DCFB6"/>
</g>
<defs>
<clipPath id="clip0_112285_1072">
<rect width="56" height="55.943" fill="white" transform="translate(4 4)"/>
</clipPath>
</defs>
</svg>
