<svg width="64" height="64" viewBox="0 0 64 64" fill="none" xmlns="http://www.w3.org/2000/svg">
<path d="M4 4C22.6793 4 41.3207 4 60 4C60 22.6793 60 41.3585 60 60C41.3585 60 22.6793 60 4 60C4 41.2829 4 22.6415 4 4ZM54.1013 33.6448C52.9669 31.603 51.4166 30.2039 49.1857 29.7124C47.5976 29.3342 46.0094 29.3342 44.4213 29.6745C39.2789 30.7333 37.0858 36.9345 40.4132 41.056C41.5854 42.4929 43.1357 43.3626 44.7616 44.1188C46.1985 44.7995 47.6732 45.4423 49.1101 46.1607C50.0932 46.6523 50.5091 47.5598 50.3957 48.6563C50.2822 49.7529 49.526 50.3579 48.5807 50.6982C46.4632 51.4544 44.0054 50.7738 42.5685 48.9966C42.266 48.6185 41.9635 48.2026 41.661 47.7866C40.2242 48.6185 38.8251 49.4126 37.4261 50.2444C38.2957 51.946 39.5057 53.3072 41.1695 54.2147C44.0054 55.765 46.9926 55.9919 50.0554 55.2356C52.0594 54.7441 53.761 53.7232 54.8197 51.8704C56.7859 48.3538 55.6516 43.9676 52.1729 41.8123C50.6225 40.867 48.8832 40.2242 47.2573 39.3923C46.4632 38.9764 45.6313 38.5982 44.9507 38.0689C43.7407 37.0858 43.9676 35.1195 45.3288 34.3633C46.6523 33.607 48.5051 34.0608 49.526 35.3842C49.7529 35.6489 49.9041 35.9514 50.131 36.2539C51.4166 35.3842 52.74 34.5145 54.1013 33.6448ZM18.7468 50.8116C19.503 52.4375 20.5996 53.7232 22.1499 54.555C24.1539 55.6516 26.3471 55.8406 28.578 55.5003C30.582 55.1978 32.2458 54.2903 33.3423 52.4753C34.2498 50.9629 34.5145 49.2991 34.5145 47.5219C34.5145 41.7745 34.5145 36.027 34.5145 30.2795C34.5145 30.1283 34.5145 29.9392 34.5145 29.7502C32.7373 29.7502 31.0358 29.7502 29.2586 29.7502C29.2586 29.977 29.2586 30.1661 29.2586 30.393C29.2586 36.0648 29.2586 41.6988 29.2586 47.3707C29.2586 47.9001 29.2208 48.4673 29.1452 48.9966C28.9939 49.8663 28.5402 50.5091 27.6705 50.7738C26.0446 51.2654 24.7211 50.7738 23.7758 49.3747C23.549 48.9966 23.3221 48.6185 23.0574 48.2404C21.5827 49.1101 20.1837 49.9419 18.7468 50.8116Z" fill="white"/>
</svg>
