<svg width="64" height="64" viewBox="0 0 64 64" fill="none" xmlns="http://www.w3.org/2000/svg">
<g clip-path="url(#clip0_112285_2349)">
<path d="M11.3733 13.1467V50.9467C6.8 45.9067 4 39.2801 4 32.0001C4 24.7201 6.8 18.0934 11.3733 13.1467Z" fill="white"/>
<path d="M14.3601 17.2534L30.5068 49.6401H14.3601V17.2534Z" fill="white"/>
<path d="M32 46.0001L16.1333 14.3601H47.8666L32 46.0001Z" fill="white"/>
<path d="M32.0001 4C39.2801 4 45.9067 6.8 50.8534 11.3733H13.1467C18.0934 6.8 24.7201 4 32.0001 4Z" fill="white"/>
<path d="M49.6401 49.6401H33.4934L49.6401 17.2534V49.6401Z" fill="white"/>
<path d="M50.8534 52.6267C45.9067 57.2 39.2801 60 32.0001 60C24.7201 60 18.0934 57.2 13.1467 52.6267H50.8534Z" fill="white"/>
<path d="M52.6267 50.8534V13.1467C57.2 18.0934 60 24.7201 60 32.0001C60 39.2801 57.2 45.9067 52.6267 50.8534Z" fill="white"/>
<path d="M14.3601 17.2534L30.5068 49.6401H14.3601V17.2534Z" fill="white"/>
<path d="M32.0002 46.0001L16.1335 14.3601H47.8669L32.0002 46.0001Z" fill="white"/>
<path d="M33.4934 49.6401L49.6401 17.2534V49.6401H33.4934Z" fill="white"/>
<path d="M16.1333 14.3601H47.8666L32 46.0001L16.1333 14.3601Z" fill="white"/>
</g>
<defs>
<clipPath id="clip0_112285_2349">
<rect width="56" height="56" fill="white" transform="translate(4 4)"/>
</clipPath>
</defs>
</svg>
