<svg width="60" height="60" viewBox="0 0 60 60" fill="none" xmlns="http://www.w3.org/2000/svg">
<g clip-path="url(#clip0_82104_3499)">
<path d="M29.9997 40.8091C45.6757 40.8091 58.3837 35.9569 58.3837 29.9715C58.3837 23.9862 45.6757 19.134 29.9997 19.134C14.3237 19.134 1.61572 23.9862 1.61572 29.9715C1.61572 35.9569 14.3237 40.8091 29.9997 40.8091Z" stroke="white" stroke-width="2.5"/>
<path d="M20.6137 35.3903C28.4517 48.9662 39.0078 57.5455 44.1913 54.5528C49.3748 51.5601 47.2229 38.1286 39.3849 24.5528C31.5468 10.977 20.9908 2.39762 15.8073 5.39032C10.6238 8.38301 12.7757 21.8145 20.6137 35.3903Z" stroke="white" stroke-width="2.5"/>
<path d="M20.614 24.5527C12.776 38.1285 10.6241 51.56 15.8076 54.5527C20.9911 57.5454 31.5471 48.966 39.3852 35.3902C47.2232 21.8144 49.3751 8.3829 44.1916 5.3902C39.0081 2.3975 28.4521 10.9768 20.614 24.5527Z" stroke="white" stroke-width="2.5"/>
<path d="M30 25.1815C32.6452 25.1817 34.7891 27.3264 34.7891 29.9716C34.7889 32.6166 32.6451 34.7605 30 34.7606C27.3548 34.7606 25.2101 32.6167 25.21 29.9716C25.21 27.3263 27.3547 25.1815 30 25.1815Z" fill="white" stroke="white"/>
</g>
<defs>
<clipPath id="clip0_82104_3499">
<rect width="60" height="60" fill="white"/>
</clipPath>
</defs>
</svg>
