<svg width="64" height="64" viewBox="0 0 64 64" fill="none" xmlns="http://www.w3.org/2000/svg">
<path fill-rule="evenodd" clip-rule="evenodd" d="M58.7991 19.769L53.8363 26.7081L48.8735 19.769H51.5794C51.3731 14.6132 47.1141 10.4886 41.9086 10.4886C37.5161 10.4886 33.791 13.4365 32.614 17.452C31.1822 16.991 29.7019 16.6998 28.1973 16.5664C28.3671 15.9234 28.5856 15.2804 28.8525 14.6618C29.5684 12.9755 30.5877 11.4591 31.886 10.161C33.1843 8.86299 34.7011 7.83183 36.3877 7.12821C38.135 6.37607 39.9915 6 41.9086 6C43.8258 6 45.6823 6.37607 47.4296 7.11608C49.1162 7.83183 50.6329 8.85086 51.9312 10.1489C53.2296 11.447 54.2488 12.9634 54.9647 14.6496C55.6564 16.2752 56.0325 17.9979 56.0689 19.769H58.7991Z" fill="white"/>
<path fill-rule="evenodd" clip-rule="evenodd" d="M51.8682 58.4091V55.4248H34.7594C34.8807 55.3642 35.0021 55.3157 35.1234 55.255C36.9799 54.3694 38.6908 53.2169 40.2197 51.8097C40.4259 51.6156 40.6201 51.4336 40.8021 51.2517C41.0084 51.0454 41.2268 50.8271 41.4331 50.5966C41.6757 50.3297 41.9184 50.0507 42.1368 49.7717H51.8682V46.7874L59.998 52.5982L51.8682 58.4091Z" fill="white"/>
<path fill-rule="evenodd" clip-rule="evenodd" d="M45.5587 36.8508C45.5587 39.4347 45.0491 41.9459 44.0541 44.3115C43.2047 46.3253 42.0156 48.1693 40.5353 49.7827C40.3411 49.989 40.147 50.1952 39.9528 50.4014C39.7708 50.5834 39.5888 50.7532 39.4068 50.9352C37.975 52.2575 36.3733 53.3372 34.626 54.1743C34.3834 54.2956 34.1286 54.4048 33.8737 54.514C33.8616 54.514 33.8616 54.5261 33.8495 54.5261C32.3934 55.1448 30.8281 55.4481 29.2386 55.4481H4V49.807H27.4306C34.5168 49.807 40.329 44.1417 40.4261 37.057C40.4261 36.9963 40.4261 36.9357 40.4261 36.875C40.4261 29.1353 34.1407 22.8512 26.3992 22.8512C18.6578 22.827 12.3724 29.0989 12.3724 36.8508H15.6243L9.81215 44.9787L4 36.8508H7.25189C7.25189 34.2668 7.76152 31.7556 8.7565 29.39C9.72722 27.1093 11.0984 25.0591 12.8578 23.3001C14.6172 21.5411 16.6678 20.1581 18.949 19.1997C21.3151 18.2049 23.8268 17.6954 26.4114 17.6954C26.9331 17.6954 27.4428 17.7197 27.9524 17.7561C29.457 17.8774 30.9252 18.1686 32.357 18.6417C32.8666 18.8115 33.3641 18.9935 33.8616 19.2118C36.1428 20.1824 38.1934 21.5532 39.9528 23.3122C41.7123 25.0713 43.0955 27.1215 44.0541 29.4021C45.0491 31.7556 45.5587 34.2668 45.5587 36.8508Z" fill="white"/>
</svg>
