<svg width="64" height="64" viewBox="0 0 64 64" fill="none" xmlns="http://www.w3.org/2000/svg">
<g clip-path="url(#clip0_112285_9)">
<g clip-path="url(#clip1_112285_9)">
<path d="M36.5046 61.003C34.9715 62.9327 31.8624 61.8767 31.8249 59.4109L31.2834 23.3616H55.5236C59.9138 23.3616 62.3636 28.4326 59.6351 31.8687L36.5046 61.003Z" fill="url(#paint0_linear_112285_9)"/>
<path d="M36.5046 61.003C34.9715 62.9327 31.8624 61.8767 31.8249 59.4109L31.2834 23.3616H55.5236C59.9138 23.3616 62.3636 28.4326 59.6351 31.8687L36.5046 61.003Z" fill="url(#paint1_linear_112285_9)" fill-opacity="0.2"/>
<path d="M26.6462 2.99701C28.1793 1.06723 31.2884 2.12325 31.3259 4.58908L31.5618 40.6384H7.62717C3.23692 40.6384 0.787178 35.5674 3.51567 32.1313L26.6462 2.99701Z" fill="white"/>
</g>
</g>
<defs>
<linearGradient id="paint0_linear_112285_9" x1="29.3429" y1="36.0016" x2="50.8868" y2="45.034" gradientUnits="userSpaceOnUse">
<stop stop-color="#CCCECE"/>
<stop offset="1" stop-color="white"/>
</linearGradient>
<linearGradient id="paint1_linear_112285_9" x1="30.3722" y1="13.6912" x2="40.1979" y2="32.1849" gradientUnits="userSpaceOnUse">
<stop/>
<stop offset="1" stop-opacity="0"/>
</linearGradient>
<clipPath id="clip0_112285_9">
<rect width="60" height="60" fill="white" transform="translate(2 2)"/>
</clipPath>
<clipPath id="clip1_112285_9">
<rect width="58.4187" height="60" fill="white" transform="translate(2.3689 2)"/>
</clipPath>
</defs>
</svg>
